<svg xmlns="http://www.w3.org/2000/svg" viewBox="0 0 512 335.45">
    <defs>
        <style>
            .cls-1{fill:none;}.cls-2{fill:#f5f5f5;}.cls-3{fill:#ff4b55;}.cls-4{fill:#41479b;}.cls-5{clip-path:url(#clip-path);}
        </style>
        <clipPath id="clip-path">
            <polygon class="cls-1" points="27.51 334.92 22.95 338.08 514.7 335.52 514.36 8.63 27.51 334.92"/>
        </clipPath>
    </defs>
    <title>English icon</title>
    <g id="Layer_2" data-name="Layer 2">
        <g id="Layer_1-2" data-name="Layer 1">
            <path class="cls-2"
                  d="M473.65,0H38.35A38.35,38.35,0,0,0,0,38.35V297.11a38.35,38.35,0,0,0,38.35,38.34h435.3A38.35,38.35,0,0,0,512,297.11V38.35A38.35,38.35,0,0,0,473.65,0Z"/>
            <path class="cls-3" d="M2.11,25.81H509.89A38.35,38.35,0,0,0,473.66,0H38.35A38.36,38.36,0,0,0,2.11,25.81Z"/>
            <rect class="cls-3" y="103.22" width="512" height="25.8"/>
            <rect class="cls-3" y="51.61" width="512" height="25.8"/>
            <path class="cls-3" d="M0,171.8a8.83,8.83,0,0,0,8.83,8.83H512V154.82H0Z"/>
            <rect class="cls-3" y="258.05" width="512" height="25.8"/>
            <path class="cls-3"
                  d="M509.89,309.65H2.11a38.36,38.36,0,0,0,36.24,25.8h435.3A38.36,38.36,0,0,0,509.89,309.65Z"/>
            <rect class="cls-3" y="206.43" width="512" height="25.8"/>
            <path class="cls-4"
                  d="M8.83,180.63H229.52a8.84,8.84,0,0,0,8.83-8.83V8.83A8.83,8.83,0,0,0,229.52,0H38.35A38.35,38.35,0,0,0,0,38.35V171.8A8.83,8.83,0,0,0,8.83,180.63Z"/>
            <path class="cls-2"
                  d="M24.79,20.26l1.95,5.86,6.18.05a.83.83,0,0,1,.49,1.5l-5,3.67,1.86,5.89a.83.83,0,0,1-1.28.93l-5-3.59-5,3.59a.83.83,0,0,1-1.28-.93l1.86-5.89-5-3.67a.83.83,0,0,1,.49-1.5l6.18-.05,1.95-5.86A.83.83,0,0,1,24.79,20.26Z"/>
            <path class="cls-2"
                  d="M24.79,50.92l1.95,5.86,6.18,0a.83.83,0,0,1,.49,1.5l-5,3.67,1.86,5.89a.83.83,0,0,1-1.28.93l-5-3.59-5,3.59a.83.83,0,0,1-1.28-.92L19.56,62l-5-3.67a.84.84,0,0,1,.49-1.51l6.18,0,1.95-5.86A.83.83,0,0,1,24.79,50.92Z"/>
            <path class="cls-2"
                  d="M24.79,81.57l1.95,5.86,6.18,0a.83.83,0,0,1,.49,1.5l-5,3.67,1.86,5.89a.83.83,0,0,1-1.28.93l-5-3.59-5,3.59a.83.83,0,0,1-1.28-.93l1.86-5.89-5-3.67a.83.83,0,0,1,.49-1.5l6.18,0,1.95-5.86A.83.83,0,0,1,24.79,81.57Z"/>
            <path class="cls-2"
                  d="M24.79,112.23l1.95,5.86,6.18,0a.83.83,0,0,1,.49,1.5l-5,3.67,1.86,5.89a.83.83,0,0,1-1.28.93l-5-3.59-5,3.59a.83.83,0,0,1-1.28-.93l1.86-5.89-5-3.67a.83.83,0,0,1,.49-1.5l6.18,0,1.95-5.86A.83.83,0,0,1,24.79,112.23Z"/>
            <path class="cls-2"
                  d="M24.79,142.88l1.95,5.86,6.18,0a.83.83,0,0,1,.49,1.5l-5,3.67,1.86,5.89a.83.83,0,0,1-1.28.93l-5-3.6-5,3.6a.83.83,0,0,1-1.28-.93L19.56,154l-5-3.67a.83.83,0,0,1,.49-1.5l6.18,0,1.95-5.86A.83.83,0,0,1,24.79,142.88Z"/>
            <path class="cls-2"
                  d="M48.58,35.29l2,5.86,6.17.05a.83.83,0,0,1,.49,1.5l-5,3.67,1.87,5.89a.84.84,0,0,1-1.28.93l-5-3.59-5,3.59a.84.84,0,0,1-1.28-.93l1.86-5.89-5-3.67a.83.83,0,0,1,.49-1.5l6.18-.05,2-5.86A.83.83,0,0,1,48.58,35.29Z"/>
            <path class="cls-2"
                  d="M48.58,66l2,5.86,6.17,0a.83.83,0,0,1,.49,1.5l-5,3.67,1.87,5.89a.83.83,0,0,1-1.28.93l-5-3.59-5,3.59a.83.83,0,0,1-1.28-.93L43.35,77l-5-3.67a.83.83,0,0,1,.49-1.5l6.18,0L47,66A.83.83,0,0,1,48.58,66Z"/>
            <path class="cls-2"
                  d="M48.58,96.6l2,5.86,6.17.05a.83.83,0,0,1,.49,1.5l-5,3.67,1.87,5.89a.84.84,0,0,1-1.28.93l-5-3.6-5,3.6a.84.84,0,0,1-1.28-.93l1.86-5.89-5-3.67a.83.83,0,0,1,.49-1.5l6.18-.05,2-5.86A.83.83,0,0,1,48.58,96.6Z"/>
            <path class="cls-2"
                  d="M48.58,127.25l2,5.86,6.17,0a.83.83,0,0,1,.49,1.5l-5,3.67,1.87,5.89a.83.83,0,0,1-1.28.93l-5-3.59-5,3.59a.83.83,0,0,1-1.28-.93l1.86-5.89-5-3.67a.83.83,0,0,1,.49-1.5l6.18,0,2-5.86A.84.84,0,0,1,48.58,127.25Z"/>
            <path class="cls-2"
                  d="M72.38,20.26l2,5.86,6.18.05a.83.83,0,0,1,.48,1.5l-5,3.67,1.86,5.89a.84.84,0,0,1-1.28.93l-5-3.59-5,3.59a.84.84,0,0,1-1.28-.93l1.87-5.89-5-3.67a.83.83,0,0,1,.49-1.5l6.17-.05,2-5.86A.83.83,0,0,1,72.38,20.26Z"/>
            <path class="cls-2"
                  d="M72.38,50.92l2,5.86,6.18,0a.83.83,0,0,1,.48,1.5L76,62l1.86,5.89a.83.83,0,0,1-1.28.93l-5-3.59-5,3.59a.83.83,0,0,1-1.28-.93L67.15,62l-5-3.67a.83.83,0,0,1,.49-1.5l6.17,0,2-5.86A.83.83,0,0,1,72.38,50.92Z"/>
            <path class="cls-2"
                  d="M72.38,81.57l2,5.86,6.18,0A.83.83,0,0,1,81,89l-5,3.67,1.86,5.89a.84.84,0,0,1-1.28.93l-5-3.59-5,3.59a.84.84,0,0,1-1.28-.93l1.87-5.89-5-3.67a.83.83,0,0,1,.49-1.5l6.17,0,2-5.86A.83.83,0,0,1,72.38,81.57Z"/>
            <path class="cls-2"
                  d="M72.38,112.23l2,5.86,6.18,0a.83.83,0,0,1,.48,1.5l-5,3.67,1.86,5.89a.83.83,0,0,1-1.28.93l-5-3.59-5,3.59a.83.83,0,0,1-1.28-.93l1.87-5.89-5-3.67a.83.83,0,0,1,.49-1.5l6.17,0,2-5.86A.83.83,0,0,1,72.38,112.23Z"/>
            <path class="cls-2"
                  d="M72.38,142.88l2,5.86,6.18,0a.83.83,0,0,1,.48,1.5L76,154l1.86,5.89a.84.84,0,0,1-1.28.93l-5-3.6-5,3.6a.84.84,0,0,1-1.28-.93L67.15,154l-5-3.67a.83.83,0,0,1,.49-1.5l6.17,0,2-5.86A.83.83,0,0,1,72.38,142.88Z"/>
            <path class="cls-2"
                  d="M96.17,35.29l2,5.86,6.18.05a.83.83,0,0,1,.49,1.5l-5,3.67,1.86,5.89a.83.83,0,0,1-1.28.93l-5-3.59-5,3.59a.83.83,0,0,1-1.27-.93l1.86-5.89L86,42.7a.83.83,0,0,1,.49-1.5l6.18-.05,2-5.86A.83.83,0,0,1,96.17,35.29Z"/>
            <path class="cls-2"
                  d="M96.17,66l2,5.86,6.18,0a.83.83,0,0,1,.49,1.5l-5,3.67,1.86,5.89a.83.83,0,0,1-1.28.93l-5-3.59-5,3.59a.83.83,0,0,1-1.27-.93L90.94,77l-5-3.67a.83.83,0,0,1,.49-1.5l6.18,0,2-5.86A.83.83,0,0,1,96.17,66Z"/>
            <path class="cls-2"
                  d="M96.17,96.6l2,5.86,6.18.05a.83.83,0,0,1,.49,1.5l-5,3.67,1.86,5.89a.83.83,0,0,1-1.28.93l-5-3.6-5,3.6a.83.83,0,0,1-1.27-.93l1.86-5.89L86,104a.83.83,0,0,1,.49-1.5l6.18-.05,2-5.86A.83.83,0,0,1,96.17,96.6Z"/>
            <path class="cls-2"
                  d="M96.17,127.25l2,5.86,6.18,0a.83.83,0,0,1,.49,1.5l-5,3.67,1.86,5.89a.83.83,0,0,1-1.28.93l-5-3.59-5,3.59a.83.83,0,0,1-1.27-.93l1.86-5.89-5-3.67a.83.83,0,0,1,.49-1.5l6.18,0,2-5.86A.84.84,0,0,1,96.17,127.25Z"/>
            <path class="cls-2"
                  d="M120,20.26l2,5.86,6.17.05a.83.83,0,0,1,.49,1.5l-5,3.67,1.87,5.89a.84.84,0,0,1-1.28.93l-5-3.59-5,3.59a.84.84,0,0,1-1.28-.93l1.86-5.89-5-3.67a.83.83,0,0,1,.49-1.5l6.18-.05,1.95-5.86A.83.83,0,0,1,120,20.26Z"/>
            <path class="cls-2"
                  d="M120,50.92l2,5.86,6.17,0a.83.83,0,0,1,.49,1.5l-5,3.67,1.87,5.89a.83.83,0,0,1-1.28.93l-5-3.59-5,3.59a.83.83,0,0,1-1.28-.93L114.73,62l-5-3.67a.83.83,0,0,1,.49-1.5l6.18,0,1.95-5.86A.83.83,0,0,1,120,50.92Z"/>
            <path class="cls-2"
                  d="M120,81.57l2,5.86,6.17,0a.83.83,0,0,1,.49,1.5l-5,3.67,1.87,5.89a.84.84,0,0,1-1.28.93l-5-3.6-5,3.6a.84.84,0,0,1-1.28-.93l1.86-5.89-5-3.67a.83.83,0,0,1,.49-1.5l6.18,0,1.95-5.86A.83.83,0,0,1,120,81.57Z"/>
            <path class="cls-2"
                  d="M120,112.23l2,5.86,6.17,0a.83.83,0,0,1,.49,1.5l-5,3.67,1.87,5.89a.83.83,0,0,1-1.28.93l-5-3.59-5,3.59a.83.83,0,0,1-1.28-.93l1.86-5.89-5-3.67a.83.83,0,0,1,.49-1.5l6.18,0,1.95-5.86A.83.83,0,0,1,120,112.23Z"/>
            <path class="cls-2"
                  d="M120,142.88l2,5.86,6.17,0a.83.83,0,0,1,.49,1.5l-5,3.67,1.87,5.89a.84.84,0,0,1-1.28.93l-5-3.6-5,3.6a.84.84,0,0,1-1.28-.93l1.86-5.89-5-3.67a.83.83,0,0,1,.49-1.5l6.18,0,1.95-5.86A.83.83,0,0,1,120,142.88Z"/>
            <path class="cls-2"
                  d="M143.76,35.29l2,5.86,6.18.05a.83.83,0,0,1,.48,1.5l-5,3.67,1.86,5.89a.84.84,0,0,1-1.28.93l-5-3.59-5,3.59a.84.84,0,0,1-1.28-.93l1.87-5.89-5-3.67a.83.83,0,0,1,.49-1.5l6.17-.05,2-5.86A.83.83,0,0,1,143.76,35.29Z"/>
            <path class="cls-2"
                  d="M143.76,66l2,5.86,6.18,0a.83.83,0,0,1,.48,1.5l-5,3.67,1.86,5.89a.83.83,0,0,1-1.28.93l-5-3.59-5,3.59a.83.83,0,0,1-1.28-.93L138.53,77l-5-3.67a.83.83,0,0,1,.49-1.5l6.17,0,2-5.86A.83.83,0,0,1,143.76,66Z"/>
            <path class="cls-2"
                  d="M143.76,96.6l2,5.86,6.18.05a.83.83,0,0,1,.48,1.5l-5,3.67,1.86,5.89a.84.84,0,0,1-1.28.93l-5-3.6-5,3.6a.84.84,0,0,1-1.28-.93l1.87-5.89-5-3.67a.83.83,0,0,1,.49-1.5l6.17-.05,2-5.86A.83.83,0,0,1,143.76,96.6Z"/>
            <path class="cls-2"
                  d="M143.76,127.25l2,5.86,6.18,0a.83.83,0,0,1,.48,1.5l-5,3.67,1.86,5.89a.83.83,0,0,1-1.28.93l-5-3.59-5,3.59a.83.83,0,0,1-1.28-.93l1.87-5.89-5-3.67a.83.83,0,0,1,.49-1.5l6.17,0,2-5.86A.84.84,0,0,1,143.76,127.25Z"/>
            <path class="cls-2"
                  d="M167.55,20.26l1.95,5.86,6.18.05a.83.83,0,0,1,.49,1.5l-5,3.67,1.86,5.89a.83.83,0,0,1-1.27.93l-5-3.59-5,3.59a.83.83,0,0,1-1.28-.93l1.86-5.89-5-3.67a.83.83,0,0,1,.49-1.5l6.18-.05L166,20.26A.83.83,0,0,1,167.55,20.26Z"/>
            <path class="cls-2"
                  d="M167.55,50.92l1.95,5.86,6.18,0a.83.83,0,0,1,.49,1.5l-5,3.67,1.86,5.89a.83.83,0,0,1-1.27.93l-5-3.59-5,3.59a.83.83,0,0,1-1.28-.93L162.32,62l-5-3.67a.83.83,0,0,1,.49-1.5l6.18,0L166,50.92A.83.83,0,0,1,167.55,50.92Z"/>
            <path class="cls-2"
                  d="M167.55,81.57l1.95,5.86,6.18,0a.83.83,0,0,1,.49,1.5l-5,3.67,1.86,5.89a.83.83,0,0,1-1.27.93l-5-3.59-5,3.59a.83.83,0,0,1-1.28-.93l1.86-5.89-5-3.67a.83.83,0,0,1,.49-1.5l6.18,0L166,81.57A.83.83,0,0,1,167.55,81.57Z"/>
            <path class="cls-2"
                  d="M167.55,112.23l1.95,5.86,6.18,0a.83.83,0,0,1,.49,1.5l-5,3.67,1.86,5.89a.83.83,0,0,1-1.27.93l-5-3.59-5,3.59a.83.83,0,0,1-1.28-.93l1.86-5.89-5-3.67a.83.83,0,0,1,.49-1.5l6.18,0,1.95-5.86A.83.83,0,0,1,167.55,112.23Z"/>
            <path class="cls-2"
                  d="M167.55,142.88l1.95,5.86,6.18,0a.83.83,0,0,1,.49,1.5l-5,3.67,1.86,5.89a.83.83,0,0,1-1.27.93l-5-3.6-5,3.6a.83.83,0,0,1-1.28-.93l1.86-5.89-5-3.67a.83.83,0,0,1,.49-1.5l6.18,0,1.95-5.86A.83.83,0,0,1,167.55,142.88Z"/>
            <path class="cls-2"
                  d="M191.34,35.29l2,5.86,6.17.05a.83.83,0,0,1,.49,1.5l-5,3.67,1.87,5.89a.84.84,0,0,1-1.28.93l-5-3.59-5,3.59a.84.84,0,0,1-1.28-.93l1.86-5.89-5-3.67a.83.83,0,0,1,.48-1.5l6.18-.05,1.95-5.86A.83.83,0,0,1,191.34,35.29Z"/>
            <path class="cls-2"
                  d="M191.34,66l2,5.86,6.17,0a.83.83,0,0,1,.49,1.5L195,77l1.87,5.89a.83.83,0,0,1-1.28.93l-5-3.59-5,3.59a.83.83,0,0,1-1.28-.93L186.11,77l-5-3.67a.83.83,0,0,1,.48-1.5l6.18,0L189.76,66A.83.83,0,0,1,191.34,66Z"/>
            <path class="cls-2"
                  d="M191.34,96.6l2,5.86,6.17.05A.83.83,0,0,1,200,104l-5,3.67,1.87,5.89a.84.84,0,0,1-1.28.93l-5-3.6-5,3.6a.84.84,0,0,1-1.28-.93l1.86-5.89-5-3.67a.83.83,0,0,1,.48-1.5l6.18-.05,1.95-5.86A.83.83,0,0,1,191.34,96.6Z"/>
            <path class="cls-2"
                  d="M191.34,127.25l2,5.86,6.17,0a.83.83,0,0,1,.49,1.5l-5,3.67,1.87,5.89a.83.83,0,0,1-1.28.93l-5-3.59-5,3.59a.83.83,0,0,1-1.28-.93l1.86-5.89-5-3.67a.83.83,0,0,1,.48-1.5l6.18,0,1.95-5.86A.84.84,0,0,1,191.34,127.25Z"/>
            <path class="cls-2"
                  d="M215.14,20.26l2,5.86,6.18.05a.83.83,0,0,1,.49,1.5l-5,3.67,1.86,5.89a.84.84,0,0,1-1.28.93l-5-3.59-5,3.59a.84.84,0,0,1-1.28-.93l1.87-5.89-5-3.67a.83.83,0,0,1,.49-1.5l6.17-.05,2-5.86A.83.83,0,0,1,215.14,20.26Z"/>
            <path class="cls-2"
                  d="M215.14,50.92l2,5.86,6.18,0a.83.83,0,0,1,.49,1.5l-5,3.67,1.86,5.89a.83.83,0,0,1-1.28.93l-5-3.59-5,3.59a.83.83,0,0,1-1.28-.93L209.91,62l-5-3.67a.83.83,0,0,1,.49-1.5l6.17,0,2-5.86A.83.83,0,0,1,215.14,50.92Z"/>
            <path class="cls-2"
                  d="M215.14,81.57l2,5.86,6.18,0a.83.83,0,0,1,.49,1.5l-5,3.67,1.86,5.89a.84.84,0,0,1-1.28.93l-5-3.59-5,3.59a.84.84,0,0,1-1.28-.93l1.87-5.89-5-3.67a.83.83,0,0,1,.49-1.5l6.17,0,2-5.86A.83.83,0,0,1,215.14,81.57Z"/>
            <path class="cls-2"
                  d="M215.14,112.23l2,5.86,6.18,0a.83.83,0,0,1,.49,1.5l-5,3.67,1.86,5.89a.83.83,0,0,1-1.28.93l-5-3.59-5,3.59a.83.83,0,0,1-1.28-.93l1.87-5.89-5-3.67a.83.83,0,0,1,.49-1.5l6.17,0,2-5.86A.83.83,0,0,1,215.14,112.23Z"/>
            <path class="cls-2"
                  d="M215.14,142.88l2,5.86,6.18,0a.83.83,0,0,1,.49,1.5l-5,3.67,1.86,5.89a.84.84,0,0,1-1.28.93l-5-3.6-5,3.6a.84.84,0,0,1-1.28-.93l1.87-5.89-5-3.67a.83.83,0,0,1,.49-1.5l6.17,0,2-5.86A.83.83,0,0,1,215.14,142.88Z"/>
            <g class="cls-5">
                <path class="cls-4"
                      d="M473.65,0H38.35A38.35,38.35,0,0,0,0,38.35V297.1a38.35,38.35,0,0,0,38.35,38.35h435.3A38.35,38.35,0,0,0,512,297.1V38.35A38.35,38.35,0,0,0,473.65,0Z"/>
                <path class="cls-2"
                      d="M511.47,32A38.35,38.35,0,0,0,473.65,0h-10L300.14,107.15V0H211.86V107.15L48.32,0h-10A38.35,38.35,0,0,0,.53,32l139.78,91.58H0v88.27H140.31L.53,303.44a38.35,38.35,0,0,0,37.81,32h10L211.86,228.3V335.45h88.28V228.3L463.68,335.45h10a38.35,38.35,0,0,0,37.82-32L371.69,211.86H512V123.59H371.69Z"/>
                <polygon class="cls-3"
                         points="282.48 0 229.52 0 229.52 141.24 0 141.24 0 194.21 229.52 194.21 229.52 335.45 282.48 335.45 282.48 194.21 512 194.21 512 141.24 282.48 141.24 282.48 0"/>
                <path class="cls-3" d="M24.79,333,211.38,211.86H179L9.22,322A38.53,38.53,0,0,0,24.79,333Z"/>
                <path class="cls-3" d="M346.39,211.86H314L494.68,329.17A38.55,38.55,0,0,0,507,316.09Z"/>
                <path class="cls-3" d="M4.05,21.2,161.78,123.59h32.43L15.48,7.57A38.48,38.48,0,0,0,4.05,21.2Z"/>
                <path class="cls-3" d="M332.57,123.59l170-110.38A38.49,38.49,0,0,0,486.9,2.35L300.14,123.59Z"/>
            </g>
        </g>
    </g>
</svg>
