<?xml version="1.0" encoding="utf-8"?>
<!-- Generator: Adobe Illustrator 24.1.2, SVG Export Plug-In . SVG Version: 6.00 Build 0)  -->
<svg version="1.1" id="Layer_1" xmlns="http://www.w3.org/2000/svg" xmlns:xlink="http://www.w3.org/1999/xlink" x="0px" y="0px"
	 viewBox="0 0 414.77 387.19" style="enable-background:new 0 0 414.77 387.19;" xml:space="preserve">
<g>
	<path d="M374.35,70.61c-48.14-0.02-113.17-0.03-161.31,0.07c-3.13,0-4.49-0.89-5.46-3.93c-5.82-18.17-11.89-36.26-17.88-54.38
		c-2.21-6.7-3.83-7.9-10.76-7.9H41.25c-18.16,0-28.76,8.09-33.66,25.67c-0.13,0.46-0.36,0.89-0.54,1.33v258
		c0.23,0.58,0.52,1.14,0.66,1.73c3.67,15.48,15.6,25.09,31.52,25.12c35.92,0.05,71.84,0.01,107.75,0.01
		c13.35,0,26.7,0.08,40.04-0.06c2.61-0.03,3.61,0.83,4.4,3.25c6.07,18.62,12.29,37.18,18.48,55.76c1.91,5.73,3.87,7.19,9.78,7.19
		c46.02,0,108.93,0.02,154.95-0.01c19.1-0.02,32.55-13.44,32.55-32.52c0.03-82.23,0.03-164.45,0-246.68
		C407.18,83.95,393.75,70.62,374.35,70.61z M40.85,301.33c-10.18,0-16.78-4.77-18.49-13.38c-0.29-1.45-0.3-2.98-0.3-4.47
		c-0.02-82.12-0.02-164.24-0.01-246.35c0.01-10.85,6.7-17.62,17.45-17.62c44.41-0.03,88.82,0,133.23-0.06
		c2.39,0,3.68,0.39,4.55,3.03c30.29,91.94,60.68,183.83,91.05,275.74c0.27,0.81,0.46,1.64,0.87,3.11h-4.18
		C190.3,301.33,115.58,301.34,40.85,301.33z M206.2,316.48h56.01c-14.02,14.95-27.43,29.26-41.36,44.11
		C215.87,345.59,211.08,331.17,206.2,316.48z M392.2,348.71c0,12.36-6.34,18.73-18.61,18.73c-39.05,0.01-94.98,0-134.03,0h-4.29
		c1.3-1.49,2.05-2.41,2.87-3.28c15.11-16.14,30.15-32.33,45.4-48.33c3.47-3.65,4.2-7.24,2.58-11.89
		c-1.49-4.3-62.77-189.69-71.57-216.34c-0.15-0.45-0.11-0.96-0.23-1.99h4.12c46.03,0,108.95-0.01,154.98,0
		c12.51,0,18.78,6.37,18.78,19V348.71z"/>
	<g>
		<path d="M336.95,158.17v46.87c0,4.01-0.2,7.59-0.6,10.74c-0.4,3.15-1.2,6.56-2.41,10.24c-2.54,7.7-7.86,13.28-15.96,16.76
			c2.34,5.56,5.72,13.4,10.14,23.54c4.42,10.14,7.49,17.25,9.23,21.33h-17.16l-29.71-72.07c-3.68,2.68-6.19,6.41-7.53,11.19
			c-1.34,4.78-2.01,11.13-2.01,19.02v41.85h-14.96v-45.67c0-14.32,2.94-24.86,8.83-31.62c2.68-3.01,6.02-5.45,10.04-7.33
			l-19.67-44.87h17.06l19.57,48.88l10.54,23.19c3.75-2.41,6.29-5.84,7.63-10.29c1.34-4.45,2.01-10.69,2.01-18.72v-43.06H336.95z"/>
	</g>
	<g>
		<path d="M110.96,88.32h18.97c4.08,16.53,16.16,65.48,36.23,146.84h-15.76l-11.44-47.78h-36.54l-11.24,47.78H75.33
			C95,154.06,106.88,105.11,110.96,88.32z M126.62,133.99l-3.21-14.35c-1.27-5.69-2.28-11.41-3.01-17.16
			c-1.07,8.37-2.36,15.93-3.86,22.68c-1.51,6.76-2.63,11.76-3.36,15.01c-0.74,3.25-2.01,8.68-3.81,16.31
			c-1.81,7.63-3.08,13.05-3.81,16.26h30.21L126.62,133.99z"/>
	</g>
</g>
</svg>
