<?xml version="1.0" encoding="utf-8"?>
<!-- Generator: Adobe Illustrator 24.1.2, SVG Export Plug-In . SVG Version: 6.00 Build 0)  -->
<svg version="1.1" id="Layer_1" xmlns="http://www.w3.org/2000/svg" xmlns:xlink="http://www.w3.org/1999/xlink" x="0px" y="0px"
	 viewBox="0 0 414.8 387.2" style="enable-background:new 0 0 414.8 387.2;" xml:space="preserve">
<g>
	<g>
		<path d="M410.7,103.3c0-10.6-3.7-19.7-10.1-26c-6.4-6.4-15.5-10.1-26.2-10.1c-45.6,0-112,0-161.3,0.1c-1.6,0-1.6,0-2.1-1.5
			c-4.4-13.7-9-27.6-13.5-41c-1.5-4.5-3-8.9-4.4-13.4C190.3,3.1,187.4,1,178.9,1H41.3c-37.7,0-37,28.2-37,28.2s0.1,224.2,0.1,258.4
			c0,3.6,0.6,7.2,2,10.5c5.5,13.5,17.7,21.7,33,21.7c24.9,0,49.7,0,74.5,0c14.6,0,29.3,0,43.9,0c9.6,0,19.6,0,29.4-0.1
			c0.4,0,0.6,0,0.7,0c0.1,0.1,0.2,0.4,0.3,0.8c5,15.4,10.2,31,15.3,46.1l3.2,9.7c2.4,7.2,5.7,9.6,13.1,9.6h41.2
			c15.8,0,32.2,0,48.5,0c23.1,0,45.7,0,65.3,0c20.9,0,36-15.2,36-36C410.7,268.1,410.7,185.1,410.7,103.3z M40.8,297.8
			c-5.9,0-13.3-1.8-15.1-10.6c-0.2-1.2-0.2-2.5-0.2-3.8c0-82.1,0-164.2,0-246.3c0-9,5.1-14.1,14-14.1c17.8,0,35.5,0,53.3,0
			c26.7,0,53.3,0,79.9,0c0.5,0,0.8,0,1,0c0.1,0.1,0.1,0.3,0.2,0.6c24.6,74.8,49.8,150.8,74,224.3l16.5,50H40.8z M222.3,353.9
			L211,320h43.1l-11.6,12.4C235.8,339.5,229.1,346.7,222.3,353.9z M388.7,348.7c0,10.4-4.8,15.2-15.1,15.2c-26.6,0-61,0-92.6,0
			h-37.8c2.7-2.8,5.3-5.7,8-8.6c11.4-12.2,23.2-24.8,34.9-37.1c4.4-4.6,5.4-9.5,3.3-15.5c-0.2-0.7-2.1-6.2-5-15v-42
			c0-7.5,0.6-13.6,1.9-18.1c0.6-2.3,1.6-4.3,2.9-6l28.6,69.5h24.8l-2.1-4.9c-2-4.6-5.2-12.2-9.2-21.4c-3.7-8.6-6.7-15.3-8.8-20.4
			c7.3-3.9,12.3-9.8,14.8-17.4c1.3-3.9,2.1-7.5,2.5-10.9c0.4-3.3,0.6-7,0.6-11.2v-50.4h-22v46.6c0,7.6-0.6,13.6-1.9,17.7
			c-0.7,2.2-1.7,4.1-3,5.6l-8.6-18.9l-20.4-51h-24.8l20.5,46.8c-3.1,1.8-5.9,4-8.2,6.6c-3.9,4.5-6.7,10.5-8.2,17.9
			c-17.4-52.8-38.6-116.7-45.2-136.8h48.1c36.3,0,75.3,0,106.6,0c10.6,0,15.3,4.8,15.3,15.5V348.7z"/>
	</g>
	<g>
		<g>
			<path d="M169.6,234.3C149.5,153,137.4,104,133.3,87.5l-0.7-2.7h-24.5l-0.7,2.7c-4.1,16.8-16,65.7-35.6,146.8l-1,4.3H94l11.2-47.8
				h31l11.4,47.8h23L169.6,234.3z M110,169.2c0.7-3.1,1.7-7.1,2.8-12c1.8-7.6,3.1-13.1,3.8-16.3c0.7-3.3,1.9-8.3,3.4-15
				c0.2-1,0.4-1.9,0.6-2.9l2.6,11.7l8.1,34.5H110z"/>
		</g>
	</g>
</g>
</svg>
