<?xml version="1.0" encoding="utf-8"?>
<!-- Generator: Adobe Illustrator 24.1.2, SVG Export Plug-In . SVG Version: 6.00 Build 0)  -->
<svg version="1.1" id="Layer_1" xmlns="http://www.w3.org/2000/svg" xmlns:xlink="http://www.w3.org/1999/xlink" x="0px" y="0px"
	 viewBox="0 0 519.7 119.5" style="enable-background:new 0 0 519.7 119.5;" xml:space="preserve">
<style type="text/css">
	.st0{fill:#E9A8A9;}
	.st1{fill:#424449;}
</style>
<g>
	<g>
		<path class="st0" d="M111.5,106.3h7.5v0.5c0,2.2-0.8,4-2.3,5.6c-1.5,1.4-3.2,2.1-5.2,2.1c-2.1,0-3.8-0.7-5.3-2.2
			c-1.5-1.5-2.3-3.3-2.3-5.5c0-2.2,0.8-4,2.3-5.5c1.5-1.5,3.2-2.2,5.3-2.2c1.1,0,2.3,0.3,3.4,0.7c1.4,0.7,2.5,1.5,3.1,2.6l-0.9,0.4
			c-0.3-0.5-0.7-0.9-1.2-1.4c-1.3-1-2.7-1.5-4.3-1.5c-1.7,0-3.2,0.6-4.5,1.9c-1.4,1.3-2.1,3-2.1,5c0,1.8,0.6,3.4,1.9,4.7
			c1.3,1.4,2.9,2.1,4.7,2.1c1.8,0,3.3-0.7,4.6-1.9c1.3-1.3,1.9-2.7,1.9-4.4h-6.5V106.3z"/>
	</g>
	<g>
		<path class="st0" d="M137.6,107.7c1,1.1,2.1,3.2,3.1,6.3l0.2,0.6h-1.1l-0.1-0.3c-0.7-2.2-1.4-3.7-2-4.8c-0.5-0.9-1.3-1.6-2.2-2.2
			h-6.4v6.8v0.5h-1v-0.5v-6.8v-0.5l0-7.2v-0.5h0.5l7,0c1.2,0,2.3,0.3,3.3,1c1.2,0.8,1.8,1.9,1.8,3.1c0,0.7-0.2,1.3-0.6,1.9
			c-0.7,1.1-1.8,1.8-3.2,2.1C137.2,107.3,137.4,107.5,137.6,107.7z M135.7,106.3c0.9,0,1.7-0.2,2.5-0.7c1-0.6,1.6-1.5,1.6-2.5
			c0-0.7-0.3-1.3-0.8-1.9c-0.8-0.9-1.9-1.3-3.3-1.3h-6.5v6.4h0.1h0h0h0h0h0h0h0h0h0h0h0h0h0h0h0h0h0h0h0h0h0h0h0h0h0h0h0h0h0h0h0h0
			h0h0h0h0h0h0h0h0h0h0h0h0h0h0h0h0h0h0h0h0h0h0h0h0h0h0h0h0h0h0h0h0h0h0h0h0h0h0h0h0h0h0h0h0h0h0h0h0h0h0h0h0h0h0h0h0h0h0h0h0h0h0
			h0h0h0h0h0h0h0h0h0h0h0h0h0h0h0h0h0h0h0h0h0h0h0h0l0,0h0h0h0h0h0h0h0h0h0h0h0h0h0h0h0h0h0h0h0h0h0h0h0h0h0h0h0h0h0h0h0h0h0h0h0h0
			h0h0h0h0h0h0h0h0h0h0h0h0h0h0h0h0h0h0h0h0h0h0h0h0h0h0h0h0h0h0h0h0h0h0h0h0h0h0H135.7z"/>
	</g>
	<g>
		<path class="st0" d="M148.7,114.5h-1.1l0.3-0.6l7.1-14.5l0.1-0.3h0.7l0.1,0.3l7.1,14.5l0.3,0.6h-1.1l-0.1-0.3l-6.6-13.6l-6.6,13.6
			L148.7,114.5z"/>
	</g>
	<g>
		<path class="st0" d="M171.1,106.8l0-7.2v-0.5h0.5l7,0c1.2,0,2.3,0.3,3.3,1c1.2,0.8,1.8,1.9,1.8,3.1c0,1-0.4,1.8-1.1,2.6
			c-1,1-2.3,1.5-3.9,1.5h-6.6v6.8v0.5h-1v-0.5v-6.8V106.8z M178.6,106.3c0.9,0,1.7-0.2,2.5-0.7c1-0.6,1.6-1.5,1.6-2.5
			c0-0.7-0.3-1.4-0.8-1.9c-0.8-0.8-1.9-1.3-3.2-1.3h-6.6v6.4L178.6,106.3z"/>
	</g>
	<g>
		<path class="st0" d="M204.9,114.1v0.5h-1v-0.5v-6.8h-10.6v6.8v0.5h-1v-0.5v-6.8v-0.9v-6.8v-0.5h1v0.5v6.8h10.6v-6.8v-0.5h1v0.5
			v6.8v0.9V114.1z"/>
	</g>
	<g>
		<path class="st0" d="M215.1,99.1h1v0.5v14.5v0.5h-1v-0.5V99.5V99.1z"/>
	</g>
	<g>
		<path class="st0" d="M159.2,107.1v1h-0.2h-7.1h-0.2v-1h0.2h7.1H159.2z"/>
	</g>
	<g>
		<path class="st0" d="M238.7,111.3c-0.4,0.5-0.9,1.1-1.5,1.6c-1.5,1.1-3.2,1.7-5,1.7c-2,0-3.8-0.7-5.3-2.2
			c-1.5-1.5-2.3-3.3-2.3-5.5c0-2.2,0.8-4,2.3-5.5c1.5-1.5,3.2-2.2,5.3-2.2c1.1,0,2.3,0.3,3.4,0.7c1.4,0.7,2.5,1.5,3.1,2.6l-0.9,0.4
			c-0.3-0.5-0.7-0.9-1.3-1.4c-1.3-1-2.7-1.4-4.3-1.4c-1.7,0-3.2,0.6-4.5,1.9c-1.4,1.3-2,3-2,5c0,1.8,0.6,3.4,1.9,4.7
			c1.3,1.4,2.8,2.1,4.7,2.1c0.9,0,1.8-0.2,2.7-0.5c1.3-0.5,2.3-1.3,3-2.3L238.7,111.3z"/>
	</g>
	<g>
		<path class="st0" d="M263.2,114.5v-0.5V99.5v-0.5h0.5h6.1h0c1.9,0.2,3.5,0.9,4.7,2.3c1.4,1.5,2,3.3,1.8,5.4c0.2,2-0.4,3.7-1.7,5.3
			c-1.3,1.5-2.9,2.3-4.8,2.4h0h0h-6.1H263.2z M269.8,113.6c1.6-0.1,2.9-0.8,4-2c1.2-1.4,1.7-3,1.6-4.8v0c0.2-1.7-0.3-3.2-1.3-4.5
			c-1.1-1.4-2.5-2.1-4.2-2.3h-5.5v13.6H269.8z"/>
	</g>
	<g>
		<path class="st0" d="M297.6,99.1v0.9h-0.5h-10.6v6.4h7.6h0.5v0.9h-0.5h-7.6v6.4h10.6h0.5v0.9h-0.5h-11.1h-0.5v-0.5v-6.8v-0.9v-6.8
			v-0.5h0.5h11.1H297.6z"/>
	</g>
	<g>
		<path class="st0" d="M315.7,103.2c0-0.7-0.3-1.3-0.9-1.9c-0.9-0.8-2.1-1.3-3.6-1.3c-1,0-2,0.2-2.9,0.7c-1.1,0.6-1.7,1.5-1.7,2.5
			c0,0.3,0.1,0.6,0.3,0.9c0.5,0.6,1.6,1.2,3.6,1.9c2.1,0.8,3.4,1.2,3.8,1.4c1.9,0.9,2.9,1.9,2.9,3.1c0,0.9-0.5,1.8-1.4,2.5
			c-1.2,1-2.8,1.5-4.7,1.5c-1.6,0-3-0.4-4.2-1.1c-1.2-0.8-1.9-1.8-1.9-3h1c0,0.7,0.4,1.4,1,1.9c1,0.8,2.4,1.2,4,1.2
			c1.2,0,2.3-0.3,3.2-0.8c1.2-0.7,1.8-1.5,1.8-2.4c0-0.3-0.1-0.6-0.3-0.9c-0.5-0.6-1.6-1.2-3.6-1.9c-2.1-0.7-3.4-1.2-3.8-1.4
			c-1.9-0.8-2.9-1.9-2.9-3c0-0.9,0.4-1.8,1.2-2.5c1.1-1,2.6-1.6,4.4-1.6c1.4,0,2.7,0.4,3.7,1.1c1.2,0.8,1.8,1.8,1.8,3H315.7z"/>
	</g>
	<g>
		<path class="st0" d="M326,99.1h1v0.5v14.5v0.5h-1v-0.5V99.5V99.1z"/>
	</g>
	<g>
		<path class="st0" d="M343.6,106.3h7.5v0.5c0,2.2-0.8,4-2.3,5.6c-1.5,1.4-3.2,2.1-5.2,2.1c-2.1,0-3.8-0.7-5.3-2.2
			c-1.5-1.5-2.3-3.3-2.3-5.5c0-2.2,0.8-4,2.3-5.5c1.5-1.5,3.2-2.2,5.3-2.2c1.1,0,2.3,0.3,3.4,0.7c1.4,0.7,2.5,1.5,3.1,2.6l-0.9,0.4
			c-0.3-0.5-0.7-0.9-1.2-1.4c-1.3-1-2.7-1.5-4.3-1.5c-1.7,0-3.2,0.6-4.5,1.9c-1.4,1.3-2.1,3-2.1,5c0,1.8,0.6,3.4,1.9,4.7
			c1.3,1.4,2.9,2.1,4.7,2.1c1.7,0,3.3-0.7,4.6-1.9c1.3-1.3,1.9-2.7,1.9-4.4h-6.5V106.3z"/>
	</g>
	<g>
		<path class="st0" d="M361.2,114.5h-1v-0.5V99.5v-0.5h0.8l0.2,0.2l10.7,13.4l0-13.1v-0.5h1v0.5l0,14.5v0.5H372l-0.2-0.2l-10.7-13.4
			v13.1V114.5z"/>
	</g>
	<g>
		<path class="st0" d="M395,99.1v0.9h-0.5h-10.6v6.4h7.6h0.5v0.9h-0.5h-7.6v6.4h10.6h0.5v0.9h-0.5h-11.1h-0.5v-0.5v-6.8v-0.9v-6.8
			v-0.5h0.5h11.1H395z"/>
	</g>
	<g>
		<path class="st0" d="M413.6,107.7c1,1.1,2.1,3.2,3.1,6.3l0.2,0.6h-1.1l-0.1-0.3c-0.7-2.2-1.4-3.7-2-4.8c-0.5-0.9-1.3-1.6-2.2-2.2
			h-6.4v6.8v0.5h-1v-0.5v-6.8v-0.5l0-7.2v-0.5h0.5l7,0c1.2,0,2.3,0.3,3.3,1c1.2,0.8,1.8,1.9,1.8,3.1c0,0.7-0.2,1.3-0.6,1.9
			c-0.7,1.1-1.8,1.8-3.2,2.1C413.2,107.3,413.4,107.5,413.6,107.7z M411.7,106.3c0.9,0,1.7-0.2,2.5-0.7c1-0.6,1.6-1.5,1.6-2.5
			c0-0.7-0.3-1.3-0.8-1.9c-0.8-0.9-1.9-1.3-3.3-1.3h-6.5v6.4h0.1h0h0h0h0h0h0h0h0h0h0h0h0h0h0h0h0h0h0h0h0h0h0h0h0h0h0h0h0h0h0h0h0
			h0h0h0h0h0h0h0h0h0h0h0h0h0h0h0h0h0h0h0h0h0h0h0h0h0h0h0h0h0h0h0h0h0h0h0h0h0h0h0h0h0h0h0h0h0h0h0h0h0h0h0h0h0h0h0h0h0h0h0h0h0h0
			h0h0h0h0h0h0h0h0h0h0h0h0h0h0h0h0h0h0h0h0h0h0h0h0l0,0h0h0h0h0h0h0h0h0h0h0h0h0h0h0h0h0h0h0h0h0h0h0h0h0h0h0h0h0h0h0h0h0h0h0h0h0
			h0h0h0h0h0h0h0h0h0h0h0h0h0h0h0h0h0h0h0h0h0h0h0h0h0h0h0h0h0h0h0h0h0h0h0h0h0h0H411.7z"/>
	</g>
	<g>
		<path class="st1" d="M47.8,78.9v1.6h-3.2v-1.6V54.9H11.2v23.9v1.6H8v-1.6V54.9v-3.2V27.8v-1.6h3.2v1.6v23.9h33.5V27.8v-1.6h3.2
			v1.6v23.9v3.2V78.9z"/>
	</g>
	<g>
		<path class="st1" d="M60,80.4h-3.5l1-2.2l22.3-51l0.4-1h2.1l0.4,1l22.3,51l1,2.2h-3.5l-0.4-1L81.3,31.8L60.4,79.5L60,80.4z"/>
	</g>
	<g>
		<path class="st1" d="M135.7,51.8h23.8v1.6c-0.1,7.7-2.5,14.2-7.3,19.6c-4.6,5-10.1,7.5-16.5,7.5c-6.5,0-12-2.6-16.7-7.7
			c-4.9-5.3-7.3-11.7-7.3-19.4c0-7.7,2.4-14.1,7.3-19.4c4.6-5.1,10.2-7.7,16.7-7.7c3.6,0,7.2,0.9,10.8,2.6c4.6,2.3,7.8,5.3,9.7,9
			l-2.9,1.4c-0.9-1.7-2.2-3.3-3.9-4.8c-4-3.5-8.6-5.2-13.7-5.1c-5.5,0.1-10.2,2.2-14.3,6.5c-4.4,4.7-6.5,10.5-6.5,17.4
			c0,6.4,2,12,5.9,16.7c4.1,4.8,9.1,7.3,14.9,7.3c5.5-0.1,10.4-2.3,14.5-6.8c4.1-4.5,6.1-9.6,6.1-15.5h-20.6V51.8z"/>
	</g>
	<g>
		<path class="st1" d="M167.6,80.4h-3.5l1-2.2l22.3-51l0.4-1h2.1l0.4,1l22.3,51l1,2.2h-3.5l-0.4-1l-20.9-47.7L168,79.5L167.6,80.4z"
			/>
	</g>
	<g>
		<path class="st1" d="M253.1,56.4c3.3,3.7,6.6,11.1,9.9,22l0.6,2.1h-3.3l-0.3-1.1c-2.3-7.5-4.5-13.1-6.5-16.7c-1.7-3-4-5.6-6.9-7.7
			h-20.2v23.9v1.6h-3.2v-1.6V54.9v-1.6l0.1-25.4v-1.6h1.6l22.2-0.1c3.9,0,7.4,1.1,10.4,3.4c3.7,2.9,5.6,6.6,5.6,11
			c0,2.3-0.6,4.5-1.8,6.5c-2.2,3.8-5.6,6.2-10.2,7.3C251.8,55,252.4,55.7,253.1,56.4z M247.1,51.8c2.9,0,5.5-0.8,7.8-2.3
			c3.3-2.2,4.9-5.2,4.9-8.8c0-2.4-0.9-4.7-2.6-6.7c-2.6-3-6-4.5-10.3-4.5h-20.6v22.4L247.1,51.8z"/>
	</g>
	<g>
		<path class="st1" d="M398,56.4c3.3,3.7,6.6,11.1,9.9,22l0.6,2.1h-3.3l-0.3-1.1c-2.3-7.5-4.5-13.1-6.5-16.7c-1.7-3-4-5.6-6.9-7.7
			h-20.2v23.9v1.6h-3.2v-1.6V54.9v-1.6l0.1-25.4v-1.6h1.6l22.2-0.1c3.9,0,7.4,1.1,10.4,3.4c3.7,2.9,5.6,6.6,5.6,11
			c0,2.3-0.6,4.5-1.8,6.5c-2.2,3.8-5.6,6.2-10.2,7.3C396.7,55,397.4,55.7,398,56.4z M392.1,51.8c2.9,0,5.5-0.8,7.8-2.3
			c3.3-2.2,4.9-5.2,4.9-8.8c0-2.4-0.9-4.7-2.6-6.7c-2.6-3-6-4.5-10.3-4.5h-20.6v22.4L392.1,51.8z"/>
	</g>
	<g>
		<path class="st1" d="M309.7,26.2h3.2v1.6v51v1.6h-3.2v-1.6v-51V26.2z"/>
	</g>
	<g>
		<path class="st1" d="M358.6,26.2v3.2H357h-28.7v22.3h20.3h1.6v3.2h-1.6h-20.3v23.9v1.6h-3.2v-1.6V54.9v-3.2V27.8v-1.6h1.6H357
			H358.6z"/>
	</g>
	<g>
		<path class="st1" d="M418.6,80.4h-3.5l1-2.2l22.3-51l0.4-1h2.1l0.4,1l22.3,51l1,2.2h-3.5l-0.4-1l-20.9-47.7L419,79.5L418.6,80.4z"
			/>
	</g>
	<g>
		<path class="st1" d="M513.3,78.9v1.6h-3.2v-1.6V54.9h-33.5v23.9v1.6h-3.2v-1.6V54.9v-3.2V27.8v-1.6h3.2v1.6v23.9h33.5V27.8v-1.6
			h3.2v1.6v23.9v3.2V78.9z"/>
	</g>
	<g>
		<path class="st0" d="M311.3,19.4c-1.2,0-2.3-0.3-3.3-0.9c-2-1.2-3.3-3.4-3.3-5.7c0-3.6,3-6.6,6.6-6.6s6.6,3,6.6,6.6
			S315,19.4,311.3,19.4z M311.3,7.1c-3.2,0-5.7,2.6-5.7,5.7c0,2,1.1,3.9,2.8,4.9c0.9,0.5,1.9,0.8,2.9,0.8c3.2,0,5.7-2.6,5.7-5.7
			S314.5,7.1,311.3,7.1z"/>
	</g>
</g>
</svg>
